<?xml version="1.0" encoding="UTF-8" standalone="no"?>
<svg width="946px" height="946px" viewBox="0 0 946 946" version="1.1" xmlns="http://www.w3.org/2000/svg" xmlns:xlink="http://www.w3.org/1999/xlink">
    <!-- Generator: Sketch 3.8.1 (29687) - http://www.bohemiancoding.com/sketch -->
    <title>Artboard 22</title>
    <desc>Created with Sketch.</desc>
    <defs></defs>
    <g id="Page-1" stroke="none" stroke-width="1" fill="none" fill-rule="evenodd">
        <g id="Artboard-22">
            <g id="Group-2" transform="translate(102.000000, 358.000000)">
                <path d="M382.074636,577.100418 C570.264848,577.100418 793.572542,378.288277 758.576721,139.20185 C745.279011,48.3537988 716.656916,14.8481973 716.656916,14.8481973 L686.665284,55.6807399 L615.970724,-5.68434188e-14 L573.125535,55.6807399 L481.008381,22.272296 L414.598339,85.3771345 L322.481184,33.4084439 L292.489552,115.073529 L223.937235,33.4084439 L187.518825,46.9984451 L157.527193,22.272296 L97.5439292,76.0970112 C97.5439292,76.0970112 34.3583937,29.5363878 28.8221357,46.9984444 C19.432132,76.615701 11.7755685,107.456686 6.0411604,139.20185 C-37.1471241,378.288277 193.884424,577.100418 382.074636,577.100418 Z" id="Oval-1" stroke="#8D90A7" stroke-width="11" fill="#F7F7F7"></path>
                <path d="M669.938732,121.5283 C688.046062,146.878562 705.113161,235.090161 684.934548,312.189386 C669.303499,371.913099 614.864733,508.573212 533.171359,546.562592 C514.966834,555.028133 484.556364,563.652646 471.240622,566.40155 C418.043918,577.38349 414.498431,553.543732 414.498431,553.543732 L590.948636,140.808635 C590.948636,140.808635 637.80484,76.540852 669.938732,121.5283 Z" id="Path-1" fill="#CECDE0" transform="translate(554.274508, 337.419043) rotate(16.000000) translate(-554.274508, -337.419043) "></path>
            </g>
            <path d="M393.802324,241.582182 C413.482295,241.582182 423.447201,260.147661 429.436065,253.260467 C435.424929,246.373274 413.482296,232 393.802324,232 C374.122353,232 351.580833,246.373274 358.168584,253.260467 C364.756334,260.147661 374.122352,241.582182 393.802324,241.582182 Z" id="Oval-246" fill="#626577"></path>
            <path d="M570.802324,241.582182 C590.482295,241.582182 600.447201,260.147661 606.436065,253.260467 C612.424929,246.373274 590.482296,232 570.802324,232 C551.122353,232 528.580833,246.373274 535.168584,253.260467 C541.756334,260.147661 551.122352,241.582182 570.802324,241.582182 Z" id="Oval-246" fill="#636577"></path>
            <g id="Group-3" transform="translate(119.000000, 13.000000)">
                <path d="M282.658879,72.1943943 C175.107432,101.618628 103.429179,188.05526 74.8976926,319.704987 C26.7298269,342.71595 0,393.45782 0,477 C0,574.945265 36.7410392,670.037298 101.695329,701.290896 C150.810788,829.639013 242.978207,915 370.5,915 C506.859492,915 597.997931,817.397408 641.147678,674.000707 C696.441531,640.588617 729,564.237755 729,475.394028 C729,393.778157 701.52361,334.905738 654.186207,305.732419 C622.212159,166.001877 542.054215,80.3204054 416.469291,63.8963085 C417.746727,58.9921539 418.440002,53.7317925 418.440002,48.2586263 C418.440002,21.6061229 401.999898,0 381.720001,0 C365.030861,0 350.942144,14.6323238 346.476259,34.6678944 C336.365919,16.1489269 318.298501,5.78825299 302.115512,10.7358894 C282.72175,16.6651573 273.378376,42.3345066 281.246502,68.0699857 C281.675836,69.4742752 282.147546,70.8497445 282.658879,72.1943943 Z" id="Combined-Shape" stroke="#00A388" stroke-width="20" fill="#FFFF9D"></path>
                <ellipse id="Oval-244" fill="#00A388" cx="356.5" cy="307.5" rx="38.5" ry="52.5"></ellipse>
                <path d="M325,317 C331.292867,325.843701 341.368936,331 356.5,331 C370.641468,331 382.306502,323.901609 389,317 C392.370775,313.524422 402,317.21113 402,307.5 C402,278.505051 377.762963,255 356.5,255 C335.237037,255 312,278.505051 312,307.5 C312,315.86168 322.449801,313.41607 325,317 Z" id="Oval-244" fill="#BEEB9F"></path>
            </g>
            <g id="Group-2" transform="translate(102.000000, 358.000000)">
                <path d="M382.074636,577.100418 C570.264848,577.100418 793.572542,378.288277 758.576721,139.20185 C745.279011,48.3537988 716.656916,14.8481973 716.656916,14.8481973 L686.665284,55.6807399 L615.970724,-5.68434188e-14 L573.125535,55.6807399 L481.008381,22.272296 L414.598339,85.3771345 L326.999997,46.9984436 L292.489552,115.073529 L230.999997,55.6807404 L182.999997,76.0970078 L135.999997,33.4084435 L97.5439292,76.0970112 C97.5439292,76.0970112 34.3583937,29.5363878 28.8221357,46.9984444 C19.432132,76.615701 11.7755685,107.456686 6.0411604,139.20185 C-37.1471241,378.288277 193.884424,577.100418 382.074636,577.100418 Z" id="Oval-1" stroke="#00A388" stroke-width="20" fill="#BEEB9F"></path>
                <path d="M683.063331,189.410669 C663.996416,120.16137 381.996423,317.161362 358.996424,426.161369 C308.928252,663.440988 747.045634,421.788571 683.063331,189.410669 Z" id="Oval-1"></path>
            </g>
            <path d="M393.802324,252.582182 C413.482295,252.582182 423.447201,271.147661 429.436065,264.260467 C435.424929,257.373274 413.482296,243 393.802324,243 C374.122353,243 351.580833,257.373274 358.168584,264.260467 C364.756334,271.147661 374.122352,252.582182 393.802324,252.582182 Z" id="Oval-246" fill="#00A388"></path>
            <path d="M553.802324,252.582182 C573.482295,252.582182 583.447201,271.147661 589.436065,264.260467 C595.424929,257.373274 573.482296,243 553.802324,243 C534.122353,243 511.580833,257.373274 518.168584,264.260467 C524.756334,271.147661 534.122352,252.582182 553.802324,252.582182 Z" id="Oval-246" fill="#00A388"></path>
        </g>
    </g>
</svg>